<svg xmlns="http://www.w3.org/2000/svg" viewBox="0 0 100 100" width="100" height="100">
  <!-- Speech Bubble -->
  <path d="M20,40 Q10,35 10,50 Q10,65 20,60 L20,70 Q30,65 40,70 Q50,65 60,70 Q70,65 80,70 L80,60 Q90,55 90,50 Q90,35 80,40 Q70,35 60,40 Q50,35 40,40 Q30,35 20,40 Z" fill="#4CAF50"/>
  
  <!-- Chat Dots -->
  <circle cx="30" cy="50" r="3" fill="white" />
  <circle cx="50" cy="50" r="3" fill="white" />
  <circle cx="70" cy="50" r="3" fill="white" />
  
  <!-- Wi-Fi Signal -->
  <path d="M50,45 Q45,38 40,35 Q35,30 30,35 Q25,40 20,45" fill="transparent" stroke="white" stroke-width="2"/>
  <path d="M50,50 Q45,45 40,45 Q35,40 30,40" fill="transparent" stroke="white" stroke-width="2"/>
  <path d="M50,55 Q45,50 40,50" fill="transparent" stroke="white" stroke-width="2"/>
  
  <!-- Text -->
  <text x="50" y="95" font-size="20" text-anchor="middle" fill="white">Chatty</text>
</svg>
